0
SECTION
2
HEADER
9
$INSUNITS
70
4
9
$ACADVER
1
AC1014
9
$HANDSEED
5
FFFF
0
ENDSEC
0
SECTION
2
TABLES
0
TABLE
2
VPORT
5
8
100
AcDbSymbolTable
0
ENDTAB
0
TABLE
2
LTYPE
5
5
100
AcDbSymbolTable
0
LTYPE
5
14
100
AcDbSymbolTableRecord
100
AcDbLinetypeTableRecord
2
BYBLOCK
70
0
0
LTYPE
5
15
100
AcDbSymbolTableRecord
100
AcDbLinetypeTableRecord
2
BYLAYER
70
0
0
ENDTAB
0
TABLE
2
LAYER
5
2
100
AcDbSymbolTable
70
2
0
LAYER
5
50
100
AcDbSymbolTableRecord
100
AcDbLayerTableRecord
2
0
70
0
6
CONTINUOUS
0
ENDTAB
0
TABLE
2
STYLE
5
3
100
AcDbSymbolTable
70
1
0
STYLE
5
11
100
AcDbSymbolTableRecord
100
AcDbTextStyleTableRecord
2
STANDARD
70
0
0
ENDTAB
0
TABLE
2
VIEW
5
6
100
AcDbSymbolTable
70
0
0
ENDTAB
0
TABLE
2
UCS
5
7
100
AcDbSymbolTable
70
0
0
ENDTAB
0
TABLE
2
APPID
5
9
100
AcDbSymbolTable
70
2
0
APPID
5
12
100
AcDbSymbolTableRecord
100
AcDbRegAppTableRecord
2
ACAD
70
0
0
ENDTAB
0
TABLE
2
DIMSTYLE
5
A
100
AcDbSymbolTable
70
1
0
ENDTAB
0
TABLE
2
BLOCK_RECORD
5
1
100
AcDbSymbolTable
70
1
0
BLOCK_RECORD
5
1F
100
AcDbSymbolTableRecord
100
AcDbBlockTableRecord
2
*MODEL_SPACE
0
BLOCK_RECORD
5
1B
100
AcDbSymbolTableRecord
100
AcDbBlockTableRecord
2
*PAPER_SPACE
0
ENDTAB
0
ENDSEC
0
SECTION
2
BLOCKS
0
BLOCK
5
20
100
AcDbEntity
100
AcDbBlockBegin
2
*MODEL_SPACE
0
ENDBLK
5
21
100
AcDbEntity
100
AcDbBlockEnd
0
BLOCK
5
1C
100
AcDbEntity
100
AcDbBlockBegin
2
*PAPER_SPACE
0
ENDBLK
5
1D
100
AcDbEntity
100
AcDbBlockEnd
0
ENDSEC
0
SECTION
2
ENTITIES
0
LWPOLYLINE
5
100
100
AcDbEntity
8
0
100
AcDbPolyline
90
8
70
1
43
0.0
10
78.437222609000003
20
-53.083282139100007
10
78.437222609000003
20
-40.083282139100007
42
0.41421356237309509
10
77.937222609000003
20
-39.583282139100007
10
64.937222609000003
20
-39.583282139100007
42
0.41421356237309509
10
64.437222609000003
20
-40.083282139100007
10
64.437222609000003
20
-53.083282139100007
42
0.41421356237309509
10
64.937222609000003
20
-53.5832821391
10
77.937222609000003
20
-53.583282139100007
42
0.41421356237309509
0
LWPOLYLINE
5
101
100
AcDbEntity
8
0
100
AcDbPolyline
90
8
70
1
43
0.0
10
141.13722260899999
20
-39.583282139100007
42
0.41421356237309509
10
140.63722260899999
20
-40.083282139100007
10
140.63722260899996
20
-53.083282139100007
42
0.41421356237309509
10
141.13722260899999
20
-53.583282139100028
10
154.13722260899999
20
-53.5832821391
42
0.41421356237309509
10
154.63722260900002
20
-53.083282139100007
10
154.63722260900005
20
-40.083282139100007
42
0.41421356237309509
10
154.13722260899999
20
-39.5832821391
0
LWPOLYLINE
5
102
100
AcDbEntity
8
0
100
AcDbPolyline
90
8
70
1
43
0.0
10
88.249722609000003
20
-1.9832821391
10
88.249722608999974
20
-14.983282139100002
42
0.41421356237309509
10
88.749722609000003
20
-15.483282139100004
10
101.749722609
20
-15.483282139100027
42
0.41421356237309509
10
102.24972260900003
20
-14.983282139100002
10
102.24972260900003
20
-1.9832821391
42
0.41421356237309509
10
101.749722609
20
-1.4832821391
10
88.749722609000003
20
-1.4832821390999715
42
0.41421356237309509
0
LWPOLYLINE
5
103
100
AcDbEntity
8
0
100
AcDbPolyline
90
8
70
1
43
0.0
10
16.024722609000001
20
-72.633282139100004
42
0.41421356237309509
10
16.524722609000001
20
-72.133282139100004
10
16.524722609000001
20
-59.133282139099997
42
0.41421356237309509
10
16.024722609000001
20
-58.633282139100004
10
3.0247226090000003
20
-58.633282139100004
42
0.41421356237309509
10
2.5247226090000003
20
-59.133282139099997
10
2.524722608999999
20
-72.133282139100004
42
0.41421356237309509
10
3.0247226090000003
20
-72.633282139100004
0
LWPOLYLINE
5
104
100
AcDbEntity
8
0
100
AcDbPolyline
90
8
70
1
43
0.0
10
211.28722260900005
20
-39.5832821391
10
198.28722260900005
20
-39.583282139099992
42
0.41421356237309509
10
197.78722260900003
20
-40.083282139100007
10
197.78722260900008
20
-53.083282139100007
42
0.41421356237309509
10
198.28722260900005
20
-53.5832821391
10
211.28722260900005
20
-53.583282139100071
42
0.41421356237309509
10
211.78722260900003
20
-53.083282139100007
10
211.78722260900005
20
-40.083282139100007
42
0.41421356237309509
0
LWPOLYLINE
5
105
100
AcDbEntity
8
0
100
AcDbPolyline
90
16
70
1
43
0.0
10
141.143972609
20
-56.633282139099997
10
135.143972609
20
-56.63328213909999
42
0.41421356237309509
10
134.643972609
20
-57.133282139099997
10
134.643972609
20
-72.133282139100004
42
0.41421356237309509
10
135.143972609
20
-72.633282139100004
10
157.74922260899999
20
-72.633282139100004
42
0.41421356237309509
10
158.24922260899999
20
-72.133282139100004
10
158.24922260899996
20
-57.133282139099997
42
0.41421356237309509
10
157.74922260899999
20
-56.633282139099997
10
151.74922260899999
20
-56.633282139099997
42
0.41421356237309509
10
151.24922260899999
20
-57.133282139099997
10
151.24922260899996
20
-58.133282139100004
42
-0.41421356237309509
10
150.74922260899999
20
-58.633282139100004
10
142.143972609
20
-58.633282139100011
42
-0.41421356237309509
10
141.643972609
20
-58.133282139100004
10
141.64397260900003
20
-57.133282139099997
42
0.41421356237309509
0
LWPOLYLINE
5
106
100
AcDbEntity
8
0
100
AcDbPolyline
90
16
70
1
43
0.0
10
194.73247260900001
20
-56.633282139099975
42
0.41421356237309509
10
194.23247260899998
20
-57.133282139099997
10
194.23247260899998
20
-58.133282139100004
42
-0.41421356237309509
10
193.73247260900001
20
-58.633282139100004
10
191.14347260900001
20
-58.633282139099975
42
0.41421356237309509
10
190.64347260900004
20
-59.133282139099997
10
190.64347260900004
20
-72.133282139100004
42
0.41421356237309509
10
191.14347260900001
20
-72.63328213909999
10
204.14347260900001
20
-72.633282139100075
42
0.41421356237309509
10
204.64347260900001
20
-72.133282139100004
10
204.64347260899999
20
-59.133282139099997
42
0.41421356237309509
10
204.14347260900001
20
-58.633282139100025
10
201.73247260900001
20
-58.633282139099975
42
-0.41421356237309509
10
201.23247260900004
20
-58.133282139100004
10
201.23247260900001
20
-57.133282139099997
42
0.41421356237309509
10
200.73247260900004
20
-56.633282139099997
0
LWPOLYLINE
5
107
100
AcDbEntity
8
0
100
AcDbPolyline
90
8
70
1
43
0.0
10
132.70597260899999
20
-72.633282139100032
42
0.41421356237309509
10
133.20597260900001
20
-72.133282139100004
10
133.20597260900001
20
-59.133282139099997
42
0.41421356237309509
10
132.70597260899999
20
-58.633282139100004
10
119.705972609
20
-58.633282139100004
42
0.41421356237309509
10
119.20597260899999
20
-59.133282139099997
10
119.20597260899997
20
-72.133282139100004
42
0.41421356237309509
10
119.705972609
20
-72.633282139100032
0
LWPOLYLINE
5
108
100
AcDbEntity
8
0
100
AcDbPolyline
90
8
70
1
43
0.0
10
175.12522260900002
20
-72.133282139100004
42
0.41421356237309509
10
175.62522260900005
20
-72.633282139100004
10
181.62522260900002
20
-72.633282139100004
42
0.41421356237309509
10
182.12522260900002
20
-72.133282139100004
10
182.12522260899999
20
-57.133282139099997
42
0.41421356237309509
10
181.62522260900002
20
-56.633282139099997
10
175.62522260900005
20
-56.633282139099933
42
0.41421356237309509
10
175.12522260899999
20
-57.133282139099997
0
LWPOLYLINE
5
109
100
AcDbEntity
8
0
100
AcDbPolyline
90
8
70
1
43
0.0
10
173.187222609
20
-58.633282139100004
10
160.18722260900003
20
-58.633282139100004
42
0.41421356237309509
10
159.687222609
20
-59.133282139099997
10
159.687222609
20
-72.133282139100004
42
0.41421356237309509
10
160.18722260900003
20
-72.633282139100004
10
173.187222609
20
-72.633282139100032
42
0.41421356237309509
10
173.68722260900003
20
-72.133282139100004
10
173.68722260899997
20
-59.133282139099997
42
0.41421356237309509
0
LWPOLYLINE
5
110
100
AcDbEntity
8
0
100
AcDbPolyline
90
8
70
1
43
0.0
10
212.07472260900005
20
-59.133282139099997
10
212.07472260900005
20
-72.133282139100004
42
0.41421356237309509
10
212.57472260900002
20
-72.633282139100004
10
225.57472260900002
20
-72.633282139100075
42
0.41421356237309509
10
226.07472260900005
20
-72.133282139100004
10
226.07472260900005
20
-59.133282139099997
42
0.41421356237309509
10
225.57472260900002
20
-58.633282139100004
10
212.57472260900002
20
-58.633282139099975
42
0.41421356237309509
0
LWPOLYLINE
5
111
100
AcDbEntity
8
0
100
AcDbPolyline
90
8
70
1
43
0.0
10
268.437222609
20
-53.583282139100064
42
0.41421356237309509
10
268.93722260900006
20
-53.083282139100007
10
268.937222609
20
-40.083282139100007
42
0.41421356237309509
10
268.437222609
20
-39.5832821391
10
255.437222609
20
-39.58328213909995
42
0.41421356237309509
10
254.93722260899997
20
-40.083282139100007
10
254.937222609
20
-53.083282139100007
42
0.41421356237309509
10
255.437222609
20
-53.5832821391
0
LWPOLYLINE
5
112
100
AcDbEntity
8
0
100
AcDbPolyline
90
8
70
1
43
0.0
10
221.31222260900003
20
-34.033282139099995
10
221.31222260900003
20
-21.033282139100002
42
0.41421356237309509
10
220.81222260900003
20
-20.533282139099999
10
207.812222609
20
-20.533282139099995
42
0.41421356237309509
10
207.312222609
20
-21.033282139100002
10
207.31222260900006
20
-34.033282139099995
42
0.41421356237309509
10
207.812222609
20
-34.533282139099995
10
220.81222260900003
20
-34.533282139100052
42
0.41421356237309509
0
LWPOLYLINE
5
113
100
AcDbEntity
8
0
100
AcDbPolyline
90
8
70
1
43
0.0
10
235.09972260900003
20
-15.483282139100039
42
0.41421356237309509
10
235.59972260900008
20
-14.983282139100002
10
235.59972260900003
20
-1.9832821391
42
0.41421356237309509
10
235.09972260900003
20
-1.4832821390999968
10
222.09972260900003
20
-1.4832821390999431
42
0.41421356237309509
10
221.59972260900005
20
-1.9832821391
10
221.59972260900003
20
-14.983282139100002
42
0.41421356237309509
10
222.09972260900003
20
-15.483282139100004
0
LWPOLYLINE
5
114
100
AcDbEntity
8
0
100
AcDbPolyline
90
8
70
1
43
0.0
10
116.037222609
20
-39.5832821391
10
103.03722260900001
20
-39.583282139100021
42
0.41421356237309509
10
102.53722260900003
20
-40.083282139100007
10
102.53722260899998
20
-53.083282139100007
42
0.41421356237309509
10
103.03722260900001
20
-53.5832821391
10
116.037222609
20
-53.583282139100007
42
0.41421356237309509
10
116.537222609
20
-53.083282139100007
10
116.537222609
20
-40.083282139100007
42
0.41421356237309509
0
LWPOLYLINE
5
115
100
AcDbEntity
8
0
100
AcDbPolyline
90
56
70
1
43
0.0
10
258.04997260900001
20
2.1417178609
10
258.04997260899995
20
5.0417178609000004
42
0.41421356237309509
10
257.04997260900001
20
6.0417178608999436
10
250.04997260900001
20
6.0417178609000288
42
0.41421356237309509
10
249.04997260900001
20
5.0417178609000004
10
249.04997260900004
20
2.1417178609
42
-0.41421356237309503
10
248.04997260900001
20
1.1417178609
10
204.33397260900006
20
1.1417178608999858
42
-0.41421356237309509
10
203.33397260900003
20
2.1417178609
10
203.33397260900006
20
5.0417178609000004
42
0.41421356237309509
10
202.33397260900006
20
6.0417178609000013
10
195.33397260900003
20
6.0417178609000022
42
0.41421356237309509
10
194.33397260900006
20
5.0417178609000004
10
194.33397260900006
20
2.1417178609
42
-0.41421356237309509
10
193.33397260900003
20
1.1417178609
10
84.571347609000014
20
1.1417178609000036
42
-0.41421356237309509
10
83.571347609000014
20
2.1417178609
10
83.571347609000014
20
5.0417178609000004
42
0.41421356237309509
10
82.571347609
20
6.0417178609000013
10
75.571347609
20
6.0417178609000013
42
0.41421356237309509
10
74.571347609
20
5.0417178609000004
10
74.571347609
20
2.1417178609
42
-0.41421356237309503
10
73.571347609
20
1.1417178609
10
23.411722608999995
20
1.1417178608999992
42
-0.4142135623730937
10
22.411722609000005
20
2.1417178609
10
22.411722609000009
20
5.0417178609000004
42
0.41421356237309509
10
21.411722609000002
20
6.0417178609000013
10
14.411722609000002
20
6.0417178608999942
42
0.41421356237309509
10
13.411722609000007
20
5.0417178609000004
10
13.411722609000009
20
2.1417178609
42
-0.41421356237309509
10
12.411722609000002
20
1.1417178608999921
10
0.89972260900000001
20
1.141717860899998
42
0.41421356237309509
10
-0.10027739100000001
20
0.14171786089999999
10
-0.10027739100000002
20
-74.258282139100004
42
0.41421356237309509
10
0.89972260900000001
20
-75.258282139100004
10
45.637722608999994
20
-75.258282139100018
42
-0.41421356237309509
10
46.637722608999994
20
-76.258282139100004
10
46.637722609000001
20
-79.15828213910001
42
0.41421356237309509
10
47.637722608999994
20
-80.158282139099995
10
54.637722609000001
20
-80.158282139099995
42
0.41421356237309509
10
55.637722608999994
20
-79.15828213910001
10
55.637722608999994
20
-76.258282139100004
42
-0.41421356237309509
10
56.637722609000001
20
-75.258282139100004
10
214.82397260900001
20
-75.258282139100004
42
-0.41421356237309509
10
215.82397260900001
20
-76.258282139100004
10
215.82397260900001
20
-79.15828213910001
42
0.41421356237309509
10
216.82397260900004
20
-80.158282139099995
10
223.82397260900004
20
-80.158282139099981
42
0.41421356237309509
10
224.82397260900001
20
-79.15828213910001
10
224.82397260900001
20
-76.258282139100004
42
-0.41421356237309509
10
225.82397260900001
20
-75.258282139100018
10
270.562222609
20
-75.258282139099975
42
0.41421356237309509
10
271.562222609
20
-74.258282139100004
10
271.562222609
20
0.14171786089999999
42
0.41421356237309509
10
270.562222609
20
1.1417178609
10
259.04997260900006
20
1.1417178608999858
42
-0.41421356237309509
0
LWPOLYLINE
5
116
100
AcDbEntity
8
0
100
AcDbPolyline
90
8
70
1
43
0.0
10
106.51222260899999
20
-20.533282139100002
10
93.512222609000005
20
-20.533282139099999
42
0.41421356237309509
10
93.012222608999991
20
-21.033282139100002
10
93.012222608999963
20
-34.033282139099995
42
0.41421356237309509
10
93.512222609000005
20
-34.533282139099995
10
106.51222260899999
20
-34.533282139099995
42
0.41421356237309509
10
107.01222260899999
20
-34.033282139099995
10
107.01222260900002
20
-21.033282139100002
42
0.41421356237309509
0
LWPOLYLINE
5
117
100
AcDbEntity
8
0
100
AcDbPolyline
90
8
70
1
43
0.0
10
230.33722260900004
20
-39.5832821391
10
217.33722260900004
20
-39.5832821391
42
0.41421356237309509
10
216.83722260900001
20
-40.083282139100007
10
216.83722260900004
20
-53.083282139100007
42
0.41421356237309509
10
217.33722260900004
20
-53.5832821391
10
230.33722260900004
20
-53.583282139100064
42
0.41421356237309509
10
230.83722260900004
20
-53.083282139100007
10
230.83722260900004
20
-40.083282139100007
42
0.41421356237309509
0
LWPOLYLINE
5
118
100
AcDbEntity
8
0
100
AcDbPolyline
90
8
70
1
43
0.0
10
112.06222260899997
20
-34.033282139099995
42
0.41421356237309509
10
112.56222260900002
20
-34.533282139100038
10
125.562222609
20
-34.533282139099995
42
0.41421356237309509
10
126.062222609
20
-34.033282139099995
10
126.062222609
20
-21.033282139100002
42
0.41421356237309509
10
125.562222609
20
-20.533282139100002
10
112.56222260900002
20
-20.533282139099974
42
0.41421356237309509
10
112.062222609
20
-21.033282139100002
0
LWPOLYLINE
5
119
100
AcDbEntity
8
0
100
AcDbPolyline
90
8
70
1
43
0.0
10
169.21222260900004
20
-21.033282139100002
10
169.21222260900004
20
-34.033282139099995
42
0.41421356237309509
10
169.71222260900004
20
-34.533282139099995
10
182.71222260900001
20
-34.533282139100024
42
0.41421356237309509
10
183.21222260900001
20
-34.033282139099995
10
183.21222260899998
20
-21.033282139100002
42
0.41421356237309509
10
182.71222260900001
20
-20.533282139100002
10
169.71222260900004
20
-20.533282139099963
42
0.41421356237309509
0
LWPOLYLINE
5
120
100
AcDbEntity
8
0
100
AcDbPolyline
90
8
70
1
43
0.0
10
188.76222260900005
20
-34.533282139099995
10
201.76222260900005
20
-34.533282139100052
42
0.41421356237309509
10
202.26222260900002
20
-34.033282139099995
10
202.26222260900005
20
-21.033282139100002
42
0.41421356237309509
10
201.76222260900005
20
-20.533282139099999
10
188.76222260900005
20
-20.533282139099995
42
0.41421356237309509
10
188.26222260900005
20
-21.033282139100002
10
188.26222260900008
20
-34.033282139099995
42
0.41421356237309509
0
LWPOLYLINE
5
121
100
AcDbEntity
8
0
100
AcDbPolyline
90
8
70
1
43
0.0
10
144.61222260899999
20
-34.533282139099995
42
0.41421356237309509
10
145.11222260900001
20
-34.033282139099995
10
145.11222260900001
20
-21.033282139100002
42
0.41421356237309509
10
144.61222260899999
20
-20.533282139100002
10
131.61222260899999
20
-20.533282139099974
42
0.41421356237309509
10
131.11222260900001
20
-21.033282139100002
10
131.11222260899996
20
-34.033282139099995
42
0.41421356237309509
10
131.61222260899999
20
-34.533282139100024
0
LWPOLYLINE
5
122
100
AcDbEntity
8
0
100
AcDbPolyline
90
8
70
1
43
0.0
10
28.475000000000005
20
-3.3081103556000002
42
0.41421356237309509
10
27.225000000000001
20
-2.0581103555999962
10
20.399999999999999
20
-2.0581103556000091
42
0.41421356237309509
10
19.150000000000009
20
-3.3081103556000002
10
19.150000000000031
20
-55.900106998999995
42
0.41421356237309509
10
20.399999999999999
20
-57.150106998999995
10
27.225000000000001
20
-57.150106998999988
42
0.41421356237309509
10
28.475000000000001
20
-55.900106998999995
0
LWPOLYLINE
5
123
100
AcDbEntity
8
0
100
AcDbPolyline
90
8
70
1
43
0.0
10
44.599722608999997
20
-1.4832821391
10
31.599722609000001
20
-1.4832821391
42
0.41421356237309509
10
31.099722609000004
20
-1.9832821391
10
31.099722609000004
20
-14.983282139100002
42
0.41421356237309509
10
31.599722609000001
20
-15.483282139099998
10
44.599722608999997
20
-15.483282139100005
42
0.41421356237309509
10
45.099722608999997
20
-14.983282139100002
10
45.099722608999997
20
-1.9832821391
42
0.41421356237309509
0
LWPOLYLINE
5
124
100
AcDbEntity
8
0
100
AcDbPolyline
90
8
70
1
43
0.0
10
47.480972608999998
20
-21.033282139100002
42
0.41421356237309509
10
46.980972608999998
20
-20.533282139100002
10
33.980972609000005
20
-20.533282139100002
42
0.41421356237309509
10
33.480972609000005
20
-21.033282139100002
10
33.480972608999991
20
-34.033282139099995
42
0.41421356237309509
10
33.980972609000005
20
-34.533282139099995
10
46.980972608999998
20
-34.533282139100002
42
0.41421356237309509
10
47.480972609000005
20
-34.033282139099995
0
LWPOLYLINE
5
125
100
AcDbEntity
8
0
100
AcDbPolyline
90
8
70
1
43
0.0
10
178.44972260900005
20
-14.983282139100002
10
178.44972260900005
20
-1.9832821391
42
0.41421356237309509
10
177.94972260900005
20
-1.4832821391
10
164.94972260899999
20
-1.4832821390999431
42
0.41421356237309509
10
164.44972260899993
20
-1.9832821391
10
164.44972260900002
20
-14.983282139100002
42
0.41421356237309509
10
164.94972260899999
20
-15.483282139100004
10
177.94972260900005
20
-15.483282139100039
42
0.41421356237309509
0
LWPOLYLINE
5
126
100
AcDbEntity
8
0
100
AcDbPolyline
90
8
70
1
43
0.0
10
226.86222260900001
20
-20.533282139099992
42
0.41421356237309509
10
226.36222260900001
20
-21.033282139100002
10
226.36222260900007
20
-34.033282139099995
42
0.41421356237309509
10
226.86222260900001
20
-34.533282139099995
10
239.86222260900004
20
-34.533282139100052
42
0.41421356237309509
10
240.36222260900004
20
-34.033282139099995
10
240.36222260900004
20
-21.033282139100002
42
0.41421356237309509
10
239.86222260900004
20
-20.533282139100002
0
LWPOLYLINE
5
127
100
AcDbEntity
8
0
100
AcDbPolyline
90
8
70
1
43
0.0
10
38.243472609000001
20
-40.083282139100007
10
38.243472608999994
20
-53.083282139100007
42
0.41421356237309509
10
38.743472609000008
20
-53.583282139100007
10
51.743472608999994
20
-53.583282139100007
42
0.41421356237309509
10
52.243472609000001
20
-53.083282139100007
10
52.243472608999994
20
-40.083282139100007
42
0.41421356237309509
10
51.743472608999994
20
-39.5832821391
10
38.743472609000008
20
-39.583282139100007
42
0.41421356237309509
0
LWPOLYLINE
5
128
100
AcDbEntity
8
0
100
AcDbPolyline
90
8
70
1
43
0.0
10
236.38722260900005
20
-53.5832821391
10
249.38722260900005
20
-53.583282139100064
42
0.41421356237309509
10
249.88722260900008
20
-53.083282139100007
10
249.88722260900005
20
-40.083282139100007
42
0.41421356237309509
10
249.38722260900005
20
-39.583282139100007
10
236.38722260900005
20
-39.583282139099992
42
0.41421356237309509
10
235.88722260900002
20
-40.083282139100007
10
235.88722260900005
20
-53.083282139100007
42
0.41421356237309509
0
LWPOLYLINE
5
129
100
AcDbEntity
8
0
100
AcDbPolyline
90
8
70
1
43
0.0
10
3.0247226090000003
20
-39.5832821391
42
0.41421356237309509
10
2.5247226089999981
20
-40.083282139100007
10
2.5247226089999963
20
-53.083282139100007
42
0.41421356237309509
10
3.0247226090000003
20
-53.583282139100007
10
16.024722609000005
20
-53.5832821391
42
0.4142135623730937
10
16.524722609000001
20
-53.083282139100007
10
16.524722609000001
20
-40.083282139100007
42
0.41421356237309509
10
16.024722609000001
20
-39.583282139100007
0
LWPOLYLINE
5
130
100
AcDbEntity
8
0
100
AcDbPolyline
90
8
70
1
43
0.0
10
126.849722609
20
-15.483282139100004
10
139.84972260900003
20
-15.483282139100004
42
0.41421356237309509
10
140.349722609
20
-14.983282139100002
10
140.34972260900003
20
-1.9832821391
42
0.41421356237309509
10
139.84972260900003
20
-1.4832821390999715
10
126.849722609
20
-1.4832821391
42
0.41421356237309509
10
126.349722609
20
-1.9832821391
10
126.349722609
20
-14.983282139100002
42
0.41421356237309509
0
LWPOLYLINE
5
131
100
AcDbEntity
8
0
100
AcDbPolyline
90
8
70
1
43
0.0
10
96.987222609
20
-53.5832821391
42
0.41421356237309509
10
97.487222609000014
20
-53.083282139100007
10
97.487222609000042
20
-40.083282139100007
42
0.41421356237309509
10
96.987222609
20
-39.583282139099964
10
83.987222609
20
-39.583282139100021
42
0.41421356237309509
10
83.487222609000014
20
-40.083282139100007
10
83.487222608999957
20
-53.083282139100007
42
0.41421356237309509
10
83.987222609
20
-53.583282139100049
0
LWPOLYLINE
5
132
100
AcDbEntity
8
0
100
AcDbPolyline
90
8
70
1
43
0.0
10
2.5247226090000003
20
-1.9832821391
10
2.5247226089999995
20
-14.983282139100002
42
0.41421356237309509
10
3.0247226090000003
20
-15.483282139100004
10
16.024722609000005
20
-15.483282139100005
42
0.4142135623730937
10
16.524722609000005
20
-14.983282139100002
10
16.524722609000005
20
-1.9832821391
42
0.41421356237309509
10
16.024722609000001
20
-1.4832821391
10
3.0247226090000003
20
-1.4832821390999995
42
0.41421356237309509
0
LWPOLYLINE
5
133
100
AcDbEntity
8
0
100
AcDbPolyline
90
8
70
1
43
0.0
10
87.962222609000008
20
-34.033282139099995
10
87.962222609000008
20
-21.033282139100002
42
0.41421356237309509
10
87.462222608999994
20
-20.533282139100002
10
74.462222608999994
20
-20.533282139100002
42
0.41421356237309509
10
73.962222609000008
20
-21.033282139100002
10
73.962222608999994
20
-34.033282139099995
42
0.41421356237309509
10
74.462222608999994
20
-34.533282139099995
10
87.462222608999994
20
-34.533282139100002
42
0.41421356237309509
0
LWPOLYLINE
5
134
100
AcDbEntity
8
0
100
AcDbPolyline
90
8
70
1
43
0.0
10
264.17472260900001
20
-34.033282139099995
10
264.17472260900007
20
-21.033282139100002
42
0.41421356237309509
10
263.67472260900001
20
-20.533282139099946
10
250.67472260900004
20
-20.533282139099995
42
0.41421356237309509
10
250.17472260900004
20
-21.033282139100002
10
250.17472260900007
20
-34.033282139099995
42
0.41421356237309509
10
250.67472260900004
20
-34.533282139099995
10
263.67472260900001
20
-34.533282139100052
42
0.41421356237309509
0
LWPOLYLINE
5
135
100
AcDbEntity
8
0
100
AcDbPolyline
90
8
70
1
43
0.0
10
179.23722260900004
20
-39.58328213909995
42
0.41421356237309509
10
178.73722260899999
20
-40.083282139100007
10
178.73722260900001
20
-53.083282139100007
42
0.41421356237309509
10
179.23722260900004
20
-53.5832821391
10
192.23722260900004
20
-53.583282139100035
42
0.41421356237309509
10
192.73722260900001
20
-53.083282139100007
10
192.73722260900001
20
-40.083282139100007
42
0.41421356237309509
10
192.23722260900004
20
-39.583282139100035
0
LWPOLYLINE
5
136
100
AcDbEntity
8
0
100
AcDbPolyline
90
16
70
1
43
0.0
10
93.732472608999998
20
-58.633282139100004
10
91.130972608999997
20
-58.633282139100011
42
0.41421356237309509
10
90.630972608999997
20
-59.133282139099997
10
90.630972608999997
20
-72.133282139100004
42
0.41421356237309509
10
91.130972608999997
20
-72.633282139100018
10
104.13097260900001
20
-72.633282139100004
42
0.41421356237309509
10
104.630972609
20
-72.133282139100004
10
104.63097260900003
20
-59.133282139099997
42
0.41421356237309509
10
104.13097260900001
20
-58.633282139100004
10
101.732472609
20
-58.633282139100011
42
-0.41421356237309509
10
101.232472609
20
-58.133282139100004
10
101.23247260900001
20
-57.133282139099997
42
0.41421356237309509
10
100.73247260900001
20
-56.633282139099997
10
94.732472609000013
20
-56.633282139099997
42
0.41421356237309509
10
94.232472608999998
20
-57.133282139099997
10
94.232472609000013
20
-58.133282139100004
42
-0.41421356237309509
0
LWPOLYLINE
5
137
100
AcDbEntity
8
0
100
AcDbPolyline
90
8
70
1
43
0.0
10
16.024722609000001
20
-20.533282139100002
10
3.024722608999999
20
-20.533282139100002
42
0.41421356237309437
10
2.5247226090000003
20
-21.033282139100002
10
2.5247226089999932
20
-34.033282139099995
42
0.41421356237309509
10
3.0247226090000003
20
-34.533282139099995
10
16.024722609000001
20
-34.533282139100002
42
0.41421356237309509
10
16.524722609000008
20
-34.033282139099995
10
16.524722609000005
20
-21.033282139100002
42
0.41421356237309509
0
LWPOLYLINE
5
138
100
AcDbEntity
8
0
100
AcDbPolyline
90
8
70
1
43
0.0
10
69.699722608999991
20
-72.633282139100004
10
82.699722608999991
20
-72.633282139100004
42
0.41421356237309509
10
83.199722609000005
20
-72.133282139100004
10
83.199722609000005
20
-59.133282139099997
42
0.41421356237309509
10
82.699722608999991
20
-58.633282139100004
10
69.699722608999991
20
-58.633282139100011
42
0.41421356237309509
10
69.199722608999991
20
-59.133282139099997
10
69.199722608999991
20
-72.133282139100004
42
0.41421356237309509
0
LWPOLYLINE
5
139
100
AcDbEntity
8
0
100
AcDbPolyline
90
8
70
1
43
0.0
10
63.649722609000001
20
-15.483282139100004
42
0.41421356237309509
10
64.149722608999994
20
-14.983282139100002
10
64.149722608999994
20
-1.9832821391
42
0.41421356237309509
10
63.649722609000001
20
-1.4832821391
10
50.649722608999994
20
-1.4832821391
42
0.41421356237309509
10
50.149722608999994
20
-1.9832821391
10
50.149722608999994
20
-14.983282139100002
42
0.41421356237309509
10
50.649722608999994
20
-15.483282139100004
0
LWPOLYLINE
5
140
100
AcDbEntity
8
0
100
AcDbPolyline
90
8
70
1
43
0.0
10
83.199722609000005
20
-1.9832821391
42
0.41421356237309509
10
82.699722608999991
20
-1.4832821390999962
10
69.699722608999991
20
-1.4832821391
42
0.41421356237309509
10
69.199722608999991
20
-1.9832821391
10
69.199722608999991
20
-14.983282139100002
42
0.41421356237309509
10
69.699722608999991
20
-15.483282139100004
10
82.699722608999991
20
-15.483282139099989
42
0.41421356237309509
10
83.199722608999991
20
-14.983282139100002
0
LWPOLYLINE
5
141
100
AcDbEntity
8
0
100
AcDbPolyline
90
8
70
1
43
0.0
10
55.412222608999997
20
-20.533282139100002
42
0.41421356237309509
10
54.912222608999997
20
-21.033282139100002
10
54.91222260899999
20
-34.033282139099995
42
0.41421356237309509
10
55.412222608999997
20
-34.533282139099995
10
68.412222608999997
20
-34.533282139100002
42
0.41421356237309509
10
68.912222608999997
20
-34.033282139099995
10
68.912222608999997
20
-21.033282139100002
42
0.41421356237309509
10
68.412222608999997
20
-20.533282139100002
0
LWPOLYLINE
5
142
100
AcDbEntity
8
0
100
AcDbPolyline
90
8
70
1
43
0.0
10
107.29972260899999
20
-14.983282139100002
42
0.41421356237309509
10
107.79972260900001
20
-15.483282139100032
10
120.799722609
20
-15.483282139100004
42
0.41421356237309509
10
121.29972260900001
20
-14.983282139100002
10
121.29972260900001
20
-1.9832821391
42
0.41421356237309509
10
120.799722609
20
-1.4832821391
10
107.79972260900001
20
-1.4832821390999715
42
0.41421356237309509
10
107.299722609
20
-1.9832821391
0
LWPOLYLINE
5
143
100
AcDbEntity
8
0
100
AcDbPolyline
90
8
70
1
43
0.0
10
111.267972609
20
-72.633282139100004
10
117.267972609
20
-72.63328213909999
42
0.41421356237309509
10
117.767972609
20
-72.133282139100004
10
117.767972609
20
-57.133282139099997
42
0.41421356237309509
10
117.267972609
20
-56.633282139099997
10
111.267972609
20
-56.633282139100004
42
0.41421356237309509
10
110.76797260900001
20
-57.133282139099997
10
110.767972609
20
-72.133282139100004
42
0.41421356237309509
0
LWPOLYLINE
5
144
100
AcDbEntity
8
0
100
AcDbPolyline
90
8
70
1
43
0.0
10
203.04972260900001
20
-15.483282139100004
10
216.04972260900001
20
-15.483282139100016
42
0.41421356237309509
10
216.54972260900001
20
-14.983282139100002
10
216.54972260899999
20
-1.9832821391
42
0.41421356237309509
10
216.04972260900001
20
-1.4832821391
10
203.04972260900001
20
-1.4832821390999398
42
0.41421356237309509
10
202.54972260899996
20
-1.9832821391
10
202.54972260900004
20
-14.983282139100002
42
0.41421356237309509
0
LWPOLYLINE
5
145
100
AcDbEntity
8
0
100
AcDbPolyline
90
8
70
1
43
0.0
10
247.79347260900005
20
-1.9832821391
10
247.79347260900008
20
-14.983282139100002
42
0.41421356237309509
10
248.29347260900005
20
-15.483282139100004
10
261.29347260899999
20
-15.483282139100059
42
0.41421356237309509
10
261.79347260899999
20
-14.983282139100002
10
261.79347260900005
20
-1.9832821391
42
0.41421356237309509
10
261.29347260899999
20
-1.4832821390999431
10
248.29347260900005
20
-1.4832821390999431
42
0.41421356237309509
0
LWPOLYLINE
5
146
100
AcDbEntity
8
0
100
AcDbPolyline
90
8
70
1
43
0.0
10
150.16222260899997
20
-34.033282139099995
42
0.41421356237309509
10
150.662222609
20
-34.533282139100024
10
163.662222609
20
-34.533282139100024
42
0.41421356237309509
10
164.16222260900003
20
-34.033282139099995
10
164.16222260899997
20
-21.033282139100002
42
0.41421356237309509
10
163.662222609
20
-20.533282139100002
10
150.662222609
20
-20.533282139100002
42
0.41421356237309509
10
150.16222260900003
20
-21.033282139100002
0
LWPOLYLINE
5
147
100
AcDbEntity
8
0
100
AcDbPolyline
90
8
70
1
43
0.0
10
173.187222609
20
-39.5832821391
10
160.18722260900003
20
-39.583282139099978
42
0.41421356237309509
10
159.687222609
20
-40.083282139100007
10
159.687222609
20
-53.083282139100007
42
0.41421356237309509
10
160.18722260900003
20
-53.583282139100028
10
173.187222609
20
-53.583282139100035
42
0.41421356237309509
10
173.68722260900003
20
-53.083282139100007
10
173.68722260899997
20
-40.083282139100007
42
0.41421356237309509
0
LWPOLYLINE
5
148
100
AcDbEntity
8
0
100
AcDbPolyline
90
8
70
1
43
0.0
10
158.89972260900004
20
-1.4832821391
10
145.89972260900001
20
-1.4832821391
42
0.41421356237309509
10
145.39972260900001
20
-1.9832821391
10
145.39972260900001
20
-14.983282139100002
42
0.41421356237309509
10
145.89972260900001
20
-15.483282139100004
10
158.89972260900004
20
-15.483282139100032
42
0.41421356237309509
10
159.39972260900001
20
-14.983282139100002
10
159.39972260900004
20
-1.9832821391
42
0.41421356237309509
0
LWPOLYLINE
5
149
100
AcDbEntity
8
0
100
AcDbPolyline
90
8
70
1
43
0.0
10
135.58722260900001
20
-40.083282139100007
42
0.41421356237309509
10
135.08722260900001
20
-39.5832821391
10
122.08722260900001
20
-39.583282139100021
42
0.41421356237309509
10
121.58722260900001
20
-40.083282139100007
10
121.58722260899998
20
-53.083282139100007
42
0.41421356237309509
10
122.08722260900001
20
-53.5832821391
10
135.08722260900001
20
-53.583282139100007
42
0.41421356237309509
10
135.58722260900001
20
-53.083282139100007
0
LWPOLYLINE
5
150
100
AcDbEntity
8
0
100
AcDbPolyline
90
8
70
1
43
0.0
10
183.999722609
20
-15.483282139100004
10
196.999722609
20
-15.483282139100039
42
0.41421356237309509
10
197.49972260900006
20
-14.983282139100002
10
197.49972260899997
20
-1.9832821391
42
0.41421356237309509
10
196.999722609
20
-1.4832821391000284
10
183.999722609
20
-1.4832821390999431
42
0.41421356237309509
10
183.49972260899995
20
-1.9832821391
10
183.49972260900003
20
-14.983282139100002
42
0.41421356237309509
0
ENDSEC
0
SECTION
2
OBJECTS
0
DICTIONARY
5
C
100
AcDbDictionary
3
ACAD_GROUP
350
D
3
ACAD_MLINESTYLE
350
17
0
DICTIONARY
5
D
100
AcDbDictionary
0
DICTIONARY
5
1A
330
C
100
AcDbDictionary
0
DICTIONARY
5
17
100
AcDbDictionary
0
ENDSEC
0
EOF
